# xmcd
#
# Track frame offsets: 
#        187
#        13292
#        25525
#        38122
#        50907
#        63697
#        75952
#        88582
#        101327
#        113662
#        126122
#        138370
#        150935
#        163282
#        174962
#        187995
#        200525
#        213437
#        226345
#        238770
#        251152
#        263407
#        275127
#
# Disc length: 3825 seconds
#
# Revision: 1
# Processed by: cddbd v1.5.2PL0 Copyright (c) Steve Scherf et al.
# Submitted via: ExactAudioCopy v0.99pb5
#
DISCID=360eef17
DTITLE=HANK WILLIAMS - Great American Hero disc 1 Honky Tonkin' (1946-
DTITLE=1947)
DYEAR=1995
DGENRE=Country
TTITLE0=CALLING YOU
TTITLE1=NEVER AGAIN
TTITLE2=WEALTH WON'T SAVE YOUR SOUL
TTITLE3=WHEN GOD COMES AND GATHERS HIS JEWELS
TTITLE4=I DON'T CARE
TTITLE5=MY LOVE FOR YOU
TTITLE6=HONKY TONKIN'
TTITLE7=PAN AMERICAN
TTITLE8=MOVE IT ON OVER
TTITLE9=I SAW THE LIGHT
TTITLE10=LAST NIGHT I HEARD YOU CRYING IN YOUR SLEEP
TTITLE11=SIX MORE MILES
TTITLE12=FLY TROUBLE
TTITLE13=I'M SATISFIED WITH YOU
TTITLE14=ON THE BANK OF THE OLD PONCHARTRAIN
TTITLE15=ROOTIE TOOTIE
TTITLE16=I CAN'T GET YOU OFF MY MIND
TTITLE17=I'M A LONG GONE DADDY
TTITLE18=HONKY TONKIN'
TTITLE19=MY SWEET LOVE AIN'T AROUND
TTITLE20=THE BLUES COME AROUND
TTITLE21=A MANSION ON THE HILL
TTITLE22=I'LL BE A BACHELOR TILL I DIE
EXTD=YEAR: 1988 ID3G: 2
EXTT0=
EXTT1=
EXTT2=
EXTT3=
EXTT4=
EXTT5=
EXTT6=
EXTT7=
EXTT8=
EXTT9=
EXTT10=
EXTT11=
EXTT12=
EXTT13=
EXTT14=
EXTT15=
EXTT16=
EXTT17=
EXTT18=
EXTT19=
EXTT20=
EXTT21=
EXTT22=
PLAYORDER=
